REM DIRINDEX 1\2,1\3,1\4,1\5
REM DIRNAME folder01,folder02,folder03,folder04,folder05
TITLE ""
FILE "" MP3
  TRACK 01 AUDIO
    TITLE "3:cjc005_4004"
    INDEX 01 00:00:00
  TRACK 02 AUDIO
    TITLE "0:"
    INDEX 01 00:00:74
  TRACK 03 AUDIO
    TITLE "4:cjc005_4005"
    INDEX 01 00:01:28
  TRACK 04 AUDIO
    TITLE "0:"
    INDEX 01 00:02:61
  TRACK 05 AUDIO
    TITLE "5:cjc005_4006"
    INDEX 01 00:03:12
  TRACK 06 AUDIO
    TITLE "0:"
    INDEX 01 00:06:00
  TRACK 07 AUDIO
    TITLE "3:cjc005_4007"
    INDEX 01 00:06:59
  TRACK 08 AUDIO
    TITLE "0:"
    INDEX 01 00:08:26
  TRACK 09 AUDIO
    TITLE "4:cjc005_4008"
    INDEX 01 00:08:52
  TRACK 10 AUDIO
    TITLE "0:"
    INDEX 01 00:10:18
  TRACK 11 AUDIO
    TITLE "5:cjc005_4009"
    INDEX 01 00:10:39
  TRACK 12 AUDIO
    TITLE "0:"
    INDEX 01 00:14:33
  TRACK 13 AUDIO
    TITLE "3:cjc005_4010"
    INDEX 01 00:15:07
  TRACK 14 AUDIO
    TITLE "0:"
    INDEX 01 00:16:38
  TRACK 15 AUDIO
    TITLE "4:cjc005_4011"
    INDEX 01 00:16:57
  TRACK 16 AUDIO
    TITLE "0:"
    INDEX 01 00:18:07
  TRACK 17 AUDIO
    TITLE "5:cjc005_4012"
    INDEX 01 00:18:35
  TRACK 18 AUDIO
    TITLE "0:"
    INDEX 01 00:21:49
  TRACK 19 AUDIO
    TITLE "3:cjc005_4013"
    INDEX 01 00:22:27
  TRACK 20 AUDIO
    TITLE "0:"
    INDEX 01 00:23:32
  TRACK 21 AUDIO
    TITLE "4:cjc005_4014"
    INDEX 01 00:23:53
  TRACK 22 AUDIO
    TITLE "0:"
    INDEX 01 00:25:01
  TRACK 23 AUDIO
    TITLE "5:cjc005_4015"
    INDEX 01 00:25:23
  TRACK 24 AUDIO
    TITLE "0:"
    INDEX 01 00:28:62
  TRACK 25 AUDIO
    TITLE "3:cjc005_4016"
    INDEX 01 00:29:36
  TRACK 26 AUDIO
    TITLE "0:"
    INDEX 01 00:30:48
  TRACK 27 AUDIO
    TITLE "4:cjc005_4017"
    INDEX 01 00:31:02
  TRACK 28 AUDIO
    TITLE "0:"
    INDEX 01 00:32:29
  TRACK 29 AUDIO
    TITLE "5:cjc005_4018"
    INDEX 01 00:32:48
  TRACK 30 AUDIO
    TITLE "0:"
    INDEX 01 00:36:31
  TRACK 31 AUDIO
    TITLE "3:cjc005_4019"
    INDEX 01 00:37:08
  TRACK 32 AUDIO
    TITLE "0:"
    INDEX 01 00:38:12
  TRACK 33 AUDIO
    TITLE "4:cjc005_4020"
    INDEX 01 00:38:37
  TRACK 34 AUDIO
    TITLE "0:"
    INDEX 01 00:40:03
  TRACK 35 AUDIO
    TITLE "5:cjc005_4021"
    INDEX 01 00:40:23
  TRACK 36 AUDIO
    TITLE "0:"
    INDEX 01 00:44:22
  TRACK 37 AUDIO
    TITLE "3:cjc005_4022"
    INDEX 01 00:44:73
  TRACK 38 AUDIO
    TITLE "0:"
    INDEX 01 00:46:00
  TRACK 39 AUDIO
    TITLE "4:cjc005_4023"
    INDEX 01 00:46:29
  TRACK 40 AUDIO
    TITLE "0:"
    INDEX 01 00:47:66
  TRACK 41 AUDIO
    TITLE "5:cjc005_4024"
    INDEX 01 00:48:12
  TRACK 42 AUDIO
    TITLE "0:"
    INDEX 01 00:50:74
  TRACK 43 AUDIO
    TITLE "3:cjc005_4025"
    INDEX 01 00:51:56
  TRACK 44 AUDIO
    TITLE "0:"
    INDEX 01 00:53:19
  TRACK 45 AUDIO
    TITLE "4:cjc005_4026"
    INDEX 01 00:53:43
  TRACK 46 AUDIO
    TITLE "0:"
    INDEX 01 00:55:06
  TRACK 47 AUDIO
    TITLE "5:cjc005_4027"
    INDEX 01 00:55:32
  TRACK 48 AUDIO
    TITLE "0:"
    INDEX 01 00:58:73
  TRACK 49 AUDIO
    TITLE "3:cjc005_4028"
    INDEX 01 00:59:55
  TRACK 50 AUDIO
    TITLE "0:"
    INDEX 01 01:01:03
  TRACK 51 AUDIO
    TITLE "4:cjc005_4029"
    INDEX 01 01:01:29
  TRACK 52 AUDIO
    TITLE "0:"
    INDEX 01 01:03:04
  TRACK 53 AUDIO
    TITLE "5:cjc005_4030"
    INDEX 01 01:03:27
  TRACK 54 AUDIO
    TITLE "0:"
    INDEX 01 01:07:23
  TRACK 55 AUDIO
    TITLE "3:cjc005_4031"
    INDEX 01 01:08:01
  TRACK 56 AUDIO
    TITLE "0:"
    INDEX 01 01:09:16
  TRACK 57 AUDIO
    TITLE "4:cjc005_4032"
    INDEX 01 01:09:44
  TRACK 58 AUDIO
    TITLE "0:"
    INDEX 01 01:10:67
  TRACK 59 AUDIO
    TITLE "5:cjc005_4033"
    INDEX 01 01:11:17
  TRACK 60 AUDIO
    TITLE "0:"
    INDEX 01 01:16:63
